<?xml version="1.0" encoding="UTF-8"?>
<!DOCTYPE svg PUBLIC "-//W3C//DTD SVG 1.1//EN" "http://www.w3.org/Graphics/SVG/1.1/DTD/svg11.dtd">
<svg xmlns="http://www.w3.org/2000/svg" version="1.1" width="1152px" height="648px" style="shape-rendering:geometricPrecision; text-rendering:geometricPrecision; image-rendering:optimizeQuality; fill-rule:evenodd; clip-rule:evenodd" xmlns:xlink="http://www.w3.org/1999/xlink">
<g><path style="opacity:1" fill="#fefffe" d="M -0.5,-0.5 C 203.167,-0.5 406.833,-0.5 610.5,-0.5C 609.797,1.71572 608.464,3.54905 606.5,5C 514.978,74.8739 423.812,145.041 333,215.5C 332.146,217.607 332.812,218.941 335,219.5C 358.189,202.899 380.856,185.566 403,167.5C 403.333,277.5 403.667,387.5 404,497.5C 547.958,498.168 691.958,498.835 836,499.5C 836.772,499.355 837.439,499.022 838,498.5C 838.333,387.167 838.667,275.833 839,164.5C 863.236,182.368 887.736,199.868 912.5,217C 915.667,217.833 916.833,216.667 916,213.5C 815.679,142.268 715.512,70.9343 615.5,-0.5C 794.167,-0.5 972.833,-0.5 1151.5,-0.5C 1151.5,215.5 1151.5,431.5 1151.5,647.5C 767.5,647.5 383.5,647.5 -0.5,647.5C -0.5,431.5 -0.5,215.5 -0.5,-0.5 Z"/></g>
<g><path style="opacity:1" fill="#000000" d="M 610.5,-0.5 C 612.167,-0.5 613.833,-0.5 615.5,-0.5C 715.512,70.9343 815.679,142.268 916,213.5C 916.833,216.667 915.667,217.833 912.5,217C 887.736,199.868 863.236,182.368 839,164.5C 838.667,275.833 838.333,387.167 838,498.5C 837.439,499.022 836.772,499.355 836,499.5C 691.958,498.835 547.958,498.168 404,497.5C 403.667,387.5 403.333,277.5 403,167.5C 380.856,185.566 358.189,202.899 335,219.5C 332.812,218.941 332.146,217.607 333,215.5C 423.812,145.041 514.978,74.8739 606.5,5C 608.464,3.54905 609.797,1.71572 610.5,-0.5 Z"/></g>
<g><path style="opacity:1" fill="#feadc8" d="M 612.5,5.5 C 614.308,5.49136 615.975,5.99136 617.5,7C 689.245,58.2894 761.079,109.456 833,160.5C 833.5,271.499 833.667,382.499 833.5,493.5C 691.833,493.5 550.167,493.5 408.5,493.5C 408.333,383.499 408.5,273.499 409,163.5C 477.019,110.97 544.852,58.303 612.5,5.5 Z"/></g>
<g><path style="opacity:1" fill="#182863" d="M 728.5,248.5 C 729.921,251.508 729.754,254.508 728,257.5C 728.29,254.587 728.457,251.587 728.5,248.5 Z"/></g>
<g><path style="opacity:1" fill="#9d3a1c" d="M 713.5,248.5 C 714.239,248.369 714.906,248.536 715.5,249C 714.502,251.812 714.336,254.646 715,257.5C 713.608,254.722 713.108,251.722 713.5,248.5 Z"/></g>
<g><path style="opacity:1" fill="#9e7286" d="M 513.5,265.5 C 513.672,264.508 513.338,263.842 512.5,263.5C 507.821,263.666 503.155,263.499 498.5,263C 503.823,262.501 509.156,262.334 514.5,262.5C 514.737,263.791 514.404,264.791 513.5,265.5 Z"/></g>
<g><path style="opacity:1" fill="#554e84" d="M 701.5,264.5 C 701.897,263.475 702.563,263.308 703.5,264C 705.007,264.837 705.507,266.004 705,267.5C 703.961,266.29 702.794,265.29 701.5,264.5 Z"/></g>
<g><path style="opacity:1" fill="#2f2d6d" d="M 549.5,263.5 C 549.56,262.957 549.893,262.624 550.5,262.5C 551.631,264.074 551.798,265.741 551,267.5C 550.79,265.942 550.29,264.609 549.5,263.5 Z"/></g>
<g><path style="opacity:1" fill="#42498b" d="M 512.5,263.5 C 513.338,263.842 513.672,264.508 513.5,265.5C 513.122,268.022 512.289,270.355 511,272.5C 511.316,269.546 511.816,266.546 512.5,263.5 Z"/></g>
<g><path style="opacity:1" fill="#554f89" d="M 581.5,266.5 C 582.497,265.287 583.497,265.454 584.5,267C 583.423,267.47 582.423,267.303 581.5,266.5 Z"/></g>
<g><path style="opacity:1" fill="#554f89" d="M 660.5,266.5 C 661.497,265.287 662.497,265.454 663.5,267C 662.423,267.47 661.423,267.303 660.5,266.5 Z"/></g>
<g><path style="opacity:1" fill="#ae4826" d="M 595.5,262.5 C 595.913,266.178 595.079,269.844 593,273.5C 593.293,269.771 594.126,266.104 595.5,262.5 Z"/></g>
<g><path style="opacity:1" fill="#842d11" d="M 709.5,268.5 C 710.239,268.369 710.906,268.536 711.5,269C 710.123,276.342 709.456,276.176 709.5,268.5 Z"/></g>
<g><path style="opacity:1" fill="#23243e" d="M 494.5,269.5 C 496.646,269.696 496.812,270.696 495,272.5C 494.517,271.552 494.351,270.552 494.5,269.5 Z"/></g>
<g><path style="opacity:1" fill="#42599b" d="M 627.5,266.5 C 628.117,266.611 628.617,266.944 629,267.5C 629.962,271.819 629.295,275.819 627,279.5C 627.353,276.9 627.853,274.233 628.5,271.5C 628.272,269.793 627.938,268.126 627.5,266.5 Z"/></g>
<g><path style="opacity:1" fill="#e86f48" d="M 671.5,266.5 C 672.207,274.858 672.874,283.358 673.5,292C 672.922,293.811 672.422,295.645 672,297.5C 671.5,287.172 671.334,276.839 671.5,266.5 Z"/></g>
<g><path style="opacity:1" fill="#dc6436" d="M 481.5,279.5 C 480.17,276.56 480.337,273.56 482,270.5C 481.848,273.447 481.681,276.447 481.5,279.5 Z"/></g>
<g><path style="opacity:1" fill="#081448" d="M 587.5,272.5 C 587.5,279.5 587.5,286.5 587.5,293.5C 586.58,285.293 586.08,276.96 586,268.5C 586.791,269.745 587.291,271.078 587.5,272.5 Z"/></g>
<g><path style="opacity:1" fill="#9697c2" d="M 587.5,272.5 C 588.699,281.03 588.699,288.03 587.5,293.5C 587.5,286.5 587.5,279.5 587.5,272.5 Z"/></g>
<g><path style="opacity:1" fill="#081448" d="M 666.5,272.5 C 666.5,279.5 666.5,286.5 666.5,293.5C 665.58,285.293 665.08,276.96 665,268.5C 665.791,269.745 666.291,271.078 666.5,272.5 Z"/></g>
<g><path style="opacity:1" fill="#9697c2" d="M 666.5,272.5 C 667.699,281.03 667.699,288.03 666.5,293.5C 666.5,286.5 666.5,279.5 666.5,272.5 Z"/></g>
<g><path style="opacity:1" fill="#6f4c69" d="M 548.5,271.5 C 549.613,272.946 549.78,274.613 549,276.5C 547.506,277.747 546.006,277.747 544.5,276.5C 545.53,276.446 546.697,276.112 548,275.5C 548.49,274.207 548.657,272.873 548.5,271.5 Z"/></g>
<g><path style="opacity:1" fill="#8d2f17" d="M 553.5,286.5 C 553.167,286.5 552.833,286.5 552.5,286.5C 552.334,282.486 552.501,278.486 553,274.5C 553.419,273.328 554.085,272.328 555,271.5C 553.759,276.303 553.259,281.303 553.5,286.5 Z"/></g>
<g><path style="opacity:1" fill="#8d2f17" d="M 632.5,286.5 C 632.167,286.5 631.833,286.5 631.5,286.5C 631.334,282.486 631.501,278.486 632,274.5C 632.419,273.328 633.085,272.328 634,271.5C 632.759,276.303 632.259,281.303 632.5,286.5 Z"/></g>
<g><path style="opacity:1" fill="#c6552e" d="M 615.5,270.5 C 616.774,274.074 616.607,277.741 615,281.5C 615.11,277.871 615.276,274.204 615.5,270.5 Z"/></g>
<g><path style="opacity:1" fill="#c55d3d" d="M 522.5,263.5 C 523.765,264.514 524.431,266.014 524.5,268C 523.352,275.855 523.186,283.689 524,291.5C 522.555,282.274 522.055,272.94 522.5,263.5 Z"/></g>
<g><path style="opacity:1" fill="#334a90" d="M 610.5,275.5 C 612.088,277.527 612.588,279.861 612,282.5C 611.023,280.26 610.523,277.927 610.5,275.5 Z"/></g>
<g><path style="opacity:1" fill="#983a20" d="M 481.5,279.5 C 482.364,280.688 483.364,281.855 484.5,283C 482.066,283.333 481.066,282.166 481.5,279.5 Z"/></g>
<g><path style="opacity:1" fill="#4b559a" d="M 565.5,273.5 C 567.245,276.885 567.745,280.552 567,284.5C 565.892,280.914 565.392,277.247 565.5,273.5 Z"/></g>
<g><path style="opacity:1" fill="#4b559a" d="M 644.5,273.5 C 646.245,276.885 646.745,280.552 646,284.5C 644.892,280.914 644.392,277.247 644.5,273.5 Z"/></g>
<g><path style="opacity:1" fill="#c35e41" d="M 600.5,290.5 C 598.52,287.858 597.686,284.858 598,281.5C 599.549,284.312 600.382,287.312 600.5,290.5 Z"/></g>
<g><path style="opacity:1" fill="#263778" d="M 514.5,277.5 C 515.189,276.226 516.023,276.226 517,277.5C 518.102,282.184 517.436,286.517 515,290.5C 515.722,287.988 516.222,285.321 516.5,282.5C 516.333,281.167 516.167,279.833 516,278.5C 515.617,277.944 515.117,277.611 514.5,277.5 Z"/></g>
<g><path style="opacity:1" fill="#712a26" d="M 483.5,287.5 C 488.539,287.451 488.705,288.118 484,289.5C 483.536,288.906 483.369,288.239 483.5,287.5 Z"/></g>
<g><path style="opacity:1" fill="#515994" d="M 572.5,287.5 C 572.5,287.833 572.5,288.167 572.5,288.5C 571.542,288.953 570.708,289.619 570,290.5C 569.655,288.799 570.322,287.466 572,286.5C 572.399,286.728 572.565,287.062 572.5,287.5 Z"/></g>
<g><path style="opacity:1" fill="#515994" d="M 651.5,287.5 C 651.5,287.833 651.5,288.167 651.5,288.5C 650.542,288.953 649.708,289.619 649,290.5C 648.655,288.799 649.322,287.466 651,286.5C 651.399,286.728 651.565,287.062 651.5,287.5 Z"/></g>
<g><path style="opacity:1" fill="#435493" d="M 616.5,288.5 C 617.532,290.503 617.198,292.503 615.5,294.5C 615.167,294.333 614.833,294.167 614.5,294C 615.464,292.275 616.131,290.441 616.5,288.5 Z"/></g>
<g><path style="opacity:1" fill="#ba522c" d="M 689.5,271.5 C 690.966,272.347 691.8,273.68 692,275.5C 692.924,283.641 692.257,291.641 690,299.5C 690.162,294.175 690.662,288.842 691.5,283.5C 691.216,279.418 690.55,275.418 689.5,271.5 Z"/></g>
<g><path style="opacity:1" fill="#bd5637" d="M 572.5,288.5 C 572.5,288.167 572.5,287.833 572.5,287.5C 574.101,286.357 574.767,287.024 574.5,289.5C 574,292.5 573.5,295.5 573,298.5C 572.502,295.183 572.335,291.85 572.5,288.5 Z"/></g>
<g><path style="opacity:1" fill="#bd5637" d="M 651.5,288.5 C 651.5,288.167 651.5,287.833 651.5,287.5C 653.101,286.357 653.767,287.024 653.5,289.5C 653,292.5 652.5,295.5 652,298.5C 651.502,295.183 651.335,291.85 651.5,288.5 Z"/></g>
<g><path style="opacity:1" fill="#a24e37" d="M 600.5,290.5 C 601.738,292.214 602.405,294.214 602.5,296.5C 603.552,296.351 604.552,296.517 605.5,297C 604.056,297.781 602.723,297.614 601.5,296.5C 600.652,294.591 600.318,292.591 600.5,290.5 Z"/></g>
<g><path style="opacity:1" fill="#cb6a4f" d="M 552.5,286.5 C 552.833,286.5 553.167,286.5 553.5,286.5C 554.068,289.588 554.068,292.588 553.5,295.5C 552.516,292.572 552.183,289.572 552.5,286.5 Z"/></g>
<g><path style="opacity:1" fill="#cb6a4f" d="M 631.5,286.5 C 631.833,286.5 632.167,286.5 632.5,286.5C 633.068,289.588 633.068,292.588 632.5,295.5C 631.516,292.572 631.183,289.572 631.5,286.5 Z"/></g>
</svg>
